# xmcd CD database file generated by Grip 2.96
# 
# Track frame offsets:
#       225
#       14340
#       26100
#       37977
#       49939
#       63980
#       76270
#       85979
#       97661
#       106722
# 
# Disc length: 1706 seconds
# 
# Revision: 0
# Processed by: cddbd v1.4PL0 Copyright (c) Steve Scherf et al.
# Submitted via: Grip 2.96
# 
DISCID=6c06a70a
DTITLE=The Motorpsychos - Ringo
DYEAR=1900
DGENRE=
TTITLE0=Ringo (Prologue)
TTITLE1=Tall in the Saddle
TTITLE2=Bullet for a bad man
TTITLE3=Rider in the Dark
TTITLE4=The Bloody Trace
TTITLE5=So long
TTITLE6=Candlelight Saloon
TTITLE7=A Fateful Turn
TTITLE8=Day of Reckoning
TTITLE9=Ringo (Epilogue)
EXTD=
EXTT0=
EXTT1=
EXTT2=
EXTT3=
EXTT4=
EXTT5=
EXTT6=
EXTT7=
EXTT8=
EXTT9=
PLAYORDER=
